<svg id="Layer_1" data-name="Layer 1" xmlns="http://www.w3.org/2000/svg" viewBox="0 0 150 150"><defs><style>.cls-1{fill:#2252bc;}.cls-2{fill:#fff;}</style></defs><rect class="cls-1" width="150" height="150" rx="33.41"/><path class="cls-2" d="M875.12,492.58a4.67,4.67,0,0,0,.69,2.87,2.62,2.62,0,0,0,2.19.88,5.55,5.55,0,0,0,2.6-.64,5.85,5.85,0,0,0,2.07-1.76l.56.24a6.58,6.58,0,0,1-2.75,3.25,7.65,7.65,0,0,1-4.09,1.21,5.11,5.11,0,0,1-4-1.4,6.7,6.7,0,0,1-1.24-4.5,18.57,18.57,0,0,1,.5-4.15,16.34,16.34,0,0,1,1.4-3.87,9.1,9.1,0,0,1,2.79-3.32,6.34,6.34,0,0,1,3.69-1.14,4.6,4.6,0,0,1,3,.83,2.84,2.84,0,0,1,1,2.38,2.68,2.68,0,0,1-.43,1.65,1.49,1.49,0,0,1-1.25.56,1.86,1.86,0,0,1-.75-.15,1.73,1.73,0,0,1-.61-.47,2,2,0,0,0,.77-.88,2.94,2.94,0,0,0,.33-1.33,1.5,1.5,0,0,0-.38-1.08,1.45,1.45,0,0,0-1.08-.38,2.79,2.79,0,0,0-2.09,1.28,11.66,11.66,0,0,0-1.8,3.54,20.54,20.54,0,0,0-.82,3.2A19,19,0,0,0,875.12,492.58Z" transform="translate(-849.6 -434.25)"/><path class="cls-2" d="M882.27,494.55a10.65,10.65,0,0,1,.44-2.9,10.54,10.54,0,0,1,1.21-2.74,6.37,6.37,0,0,1,2.14-2.15,5.47,5.47,0,0,1,2.78-.73,2.79,2.79,0,0,1,2.31,1,4.56,4.56,0,0,1,.77,2.88l.1,0h.16a5.08,5.08,0,0,0,1.78-.41,9.34,9.34,0,0,0,1.92-1l.21.65a5.91,5.91,0,0,1-1.79,1.25,8.94,8.94,0,0,1-2.46.74,9.53,9.53,0,0,1-1.87,5.23,4.76,4.76,0,0,1-3.86,2,3.94,3.94,0,0,1-2.86-1A3.76,3.76,0,0,1,882.27,494.55ZM889,487.5c-.77,0-1.5.77-2.18,2.32a11.07,11.07,0,0,0-1,4.42,3.29,3.29,0,0,0,.25,1.53,1.05,1.05,0,0,0,1,.41c.59,0,1.15-.48,1.69-1.44a10.1,10.1,0,0,0,1.09-3.55.72.72,0,0,1-.49-.32,1.26,1.26,0,0,1-.16-.69,1.68,1.68,0,0,1,.19-.79,1.24,1.24,0,0,1,.56-.5,2.41,2.41,0,0,0-.26-1.08A.7.7,0,0,0,889,487.5Z" transform="translate(-849.6 -434.25)"/><path class="cls-2" d="M905.81,495.68a7,7,0,0,1,.11-1.08c.07-.43.22-1.12.44-2.06s.37-1.57.43-2a6,6,0,0,0,.1-1,1.53,1.53,0,0,0-.22-.91.73.73,0,0,0-.64-.32,1.4,1.4,0,0,0-1.07.59,4.72,4.72,0,0,0-.81,1.62l-1.63,7.71h-3.45l1.75-8.28a1.67,1.67,0,0,0,.06-.29c0-.1,0-.2,0-.31a1.35,1.35,0,0,0-.19-.77.62.62,0,0,0-.53-.29,1.48,1.48,0,0,0-1.13.59,4.41,4.41,0,0,0-.81,1.64l-1.64,7.71h-3.45l2.54-12h3.46l-.26,1.25a3.57,3.57,0,0,1,2.92-1.37,2.25,2.25,0,0,1,2.47,2.06,4.85,4.85,0,0,1,1.49-1.53,3.43,3.43,0,0,1,1.85-.51,2.65,2.65,0,0,1,2,.7,2.72,2.72,0,0,1,.69,2,7.5,7.5,0,0,1-.13,1.31c-.09.51-.26,1.28-.51,2.32-.21.81-.35,1.39-.41,1.72a4.27,4.27,0,0,0-.1.85,1.06,1.06,0,0,0,.24.75.94.94,0,0,0,.72.25,1.43,1.43,0,0,0,1-.4,5.68,5.68,0,0,0,1-1.71h1a9,9,0,0,1-1.86,3.34,3.57,3.57,0,0,1-2.61,1.1,2.86,2.86,0,0,1-2.09-.73A2.68,2.68,0,0,1,905.81,495.68Z" transform="translate(-849.6 -434.25)"/><path class="cls-2" d="M913.54,503.38l-3.62.87,4-18.89h3.46l-.38,1.8a4.15,4.15,0,0,1,2.8-1,2.61,2.61,0,0,1,2.19,1,4.6,4.6,0,0,1,.74,2.83,10.84,10.84,0,0,1-1.57,6.07,4.92,4.92,0,0,1-4.33,2.4,3.45,3.45,0,0,1-1.29-.21,1.56,1.56,0,0,1-.75-.65Zm1.63-7.63a.76.76,0,0,0,.34.41,1.15,1.15,0,0,0,.57.14c1,0,1.82-.64,2.44-1.94a10.5,10.5,0,0,0,.92-4.51,3.1,3.1,0,0,0-.28-1.49,1,1,0,0,0-.92-.51,1.56,1.56,0,0,0-.89.33,2.72,2.72,0,0,0-.76.85Z" transform="translate(-849.6 -434.25)"/><path class="cls-2" d="M932.45,488.33a4.52,4.52,0,0,1-1.63,3.47,6.1,6.1,0,0,1-3.89,1.6c0,.27,0,.48,0,.61s0,.25,0,.35a2.55,2.55,0,0,0,.37,1.56,1.7,1.7,0,0,0,1.36.46,4.36,4.36,0,0,0,2.08-.52,8.67,8.67,0,0,0,2.17-1.91h.81a10.52,10.52,0,0,1-3,3.35,6.29,6.29,0,0,1-3.58,1.09,3.75,3.75,0,0,1-2.79-1,3.91,3.91,0,0,1-.95-2.85,10.69,10.69,0,0,1,.43-2.91,11.27,11.27,0,0,1,1.15-2.73,6.36,6.36,0,0,1,2.13-2.18,5.4,5.4,0,0,1,2.77-.73,3,3,0,0,1,2,.57A2.14,2.14,0,0,1,932.45,488.33Zm-2.45-1c-.54,0-1.09.49-1.64,1.45a11.7,11.7,0,0,0-1.24,3.5,3.55,3.55,0,0,0,2.44-1.29,4,4,0,0,0,1-2.67,1.58,1.58,0,0,0-.14-.75A.5.5,0,0,0,930,487.3Z" transform="translate(-849.6 -434.25)"/><path class="cls-2" d="M933.72,486.25h.79l.72-3.31,3.56-.48-.82,3.79h1.44l-.19,1h-1.44l-1.54,7.2c0,.14,0,.27-.07.39a2.36,2.36,0,0,0,0,.38.88.88,0,0,0,.22.68,1.13,1.13,0,0,0,.76.2,1.79,1.79,0,0,0,1.27-.58,3.56,3.56,0,0,0,.89-1.53h1a7.54,7.54,0,0,1-2.07,3.31,4.34,4.34,0,0,1-3,1.13,2.44,2.44,0,0,1-1.89-.75,3.11,3.11,0,0,1-.68-2.13,6.54,6.54,0,0,1,0-.71c0-.26.08-.54.14-.85l1.44-6.74h-.79Z" transform="translate(-849.6 -434.25)"/><path class="cls-2" d="M939.1,495.51a4.72,4.72,0,0,1,0-.71c0-.26.08-.54.14-.85l1.63-7.7h3.46l-1.73,8.16a3.24,3.24,0,0,0-.07.39,2.34,2.34,0,0,0,0,.38.88.88,0,0,0,.23.68,1.12,1.12,0,0,0,.76.2,1.79,1.79,0,0,0,1.27-.58,3.67,3.67,0,0,0,.89-1.53h1a7.72,7.72,0,0,1-2.07,3.31,4.34,4.34,0,0,1-3,1.13,2.44,2.44,0,0,1-1.89-.75A3.11,3.11,0,0,1,939.1,495.51Zm6.12-12.45a1.81,1.81,0,0,1-.57,1.34,1.9,1.9,0,0,1-3.25-1.34,1.87,1.87,0,0,1,.55-1.36,1.91,1.91,0,0,1,2.7,0A1.85,1.85,0,0,1,945.22,483.06Z" transform="translate(-849.6 -434.25)"/><path class="cls-2" d="M946.54,486.25h.79l.72-3.31,3.55-.48-.81,3.79h1.44l-.2,1h-1.44l-1.53,7.2a3.24,3.24,0,0,0-.07.39,2.34,2.34,0,0,0,0,.38.88.88,0,0,0,.23.68,1.1,1.1,0,0,0,.76.2,1.81,1.81,0,0,0,1.27-.58,3.67,3.67,0,0,0,.89-1.53h1a7.62,7.62,0,0,1-2.06,3.31,4.37,4.37,0,0,1-3,1.13,2.42,2.42,0,0,1-1.88-.75,3.06,3.06,0,0,1-.68-2.13,6.32,6.32,0,0,1,0-.71c0-.26.08-.54.15-.85l1.44-6.74h-.79Z" transform="translate(-849.6 -434.25)"/><path class="cls-2" d="M951.91,495.51a6.54,6.54,0,0,1,.05-.71,8.07,8.07,0,0,1,.15-.85l1.63-7.7h3.45l-1.73,8.16c0,.14-.05.27-.07.39s0,.25,0,.38a.88.88,0,0,0,.23.68,1.09,1.09,0,0,0,.75.2,1.78,1.78,0,0,0,1.27-.58,3.47,3.47,0,0,0,.89-1.53h1a7.62,7.62,0,0,1-2.06,3.31,4.39,4.39,0,0,1-3,1.13,2.4,2.4,0,0,1-1.88-.75A3.07,3.07,0,0,1,951.91,495.51ZM958,483.06a1.84,1.84,0,0,1-.56,1.34,1.87,1.87,0,0,1-1.36.55,1.88,1.88,0,0,1-1.89-1.89,1.87,1.87,0,0,1,.55-1.36,1.78,1.78,0,0,1,1.34-.56,1.84,1.84,0,0,1,1.36.56A1.88,1.88,0,0,1,958,483.06Z" transform="translate(-849.6 -434.25)"/><path class="cls-2" d="M966,488.29a.73.73,0,0,1-.62-.37,1.57,1.57,0,0,1-.24-.86,1.16,1.16,0,0,1,.4-.94,1.54,1.54,0,0,1,1.09-.35,1.3,1.3,0,0,1,1.13.55,2.7,2.7,0,0,1,.38,1.53,14.93,14.93,0,0,1-.42,3.42,15.24,15.24,0,0,1-1.14,3.26,8,8,0,0,1-2.3,2.88,5,5,0,0,1-3,1,3,3,0,0,1-2.18-.73,2.74,2.74,0,0,1-.77-2.1,5.55,5.55,0,0,1,0-.56l.09-.59,1.73-8.16h3.45l-1.73,8.16c0,.17-.06.34-.08.49a3.39,3.39,0,0,0,0,.37.79.79,0,0,0,.21.59.8.8,0,0,0,.61.2,2.26,2.26,0,0,0,1.64-.87,8.3,8.3,0,0,0,1.46-2.49,14.23,14.23,0,0,0,.76-2.42,10.42,10.42,0,0,0,.29-2.23c0,.06-.13.12-.3.16A1.65,1.65,0,0,1,966,488.29Z" transform="translate(-849.6 -434.25)"/><path class="cls-2" d="M977.3,488.33a4.52,4.52,0,0,1-1.63,3.47,6.07,6.07,0,0,1-3.88,1.6c0,.27,0,.48,0,.61s0,.25,0,.35a2.48,2.48,0,0,0,.37,1.56,1.69,1.69,0,0,0,1.35.46,4.31,4.31,0,0,0,2.08-.52,8.5,8.5,0,0,0,2.17-1.91h.82a10.65,10.65,0,0,1-3,3.35,6.26,6.26,0,0,1-3.57,1.09,3.77,3.77,0,0,1-2.8-1,3.91,3.91,0,0,1-1-2.85,10.72,10.72,0,0,1,.44-2.91,11.27,11.27,0,0,1,1.15-2.73,6.34,6.34,0,0,1,2.12-2.18,5.44,5.44,0,0,1,2.78-.73,3,3,0,0,1,2,.57A2.14,2.14,0,0,1,977.3,488.33Zm-2.44-1c-.55,0-1.1.49-1.65,1.45a11.7,11.7,0,0,0-1.23,3.5,3.53,3.53,0,0,0,2.43-1.29,3.92,3.92,0,0,0,1.05-2.67,1.45,1.45,0,0,0-.15-.75A.49.49,0,0,0,974.86,487.3Z" transform="translate(-849.6 -434.25)"/><path class="cls-2" d="M906.29,527.05h-3.46l3.27-15.27,3.55-.48-1.7,8a4,4,0,0,0,2.94-2,6.78,6.78,0,0,0,1.26-3.93,3.48,3.48,0,0,0-.78-2.41,2.84,2.84,0,0,0-2.2-.86,6.4,6.4,0,0,0-4.57,1.55A5.58,5.58,0,0,0,903,516a4.46,4.46,0,0,0,.06.79,2.36,2.36,0,0,0,.21.65l.06.13a.18.18,0,0,1,0,.06,2.82,2.82,0,0,1-2-.56,2.3,2.3,0,0,1-.61-1.76,4.27,4.27,0,0,1,.81-2.4,7.86,7.86,0,0,1,2.24-2.16,10.92,10.92,0,0,1,2.63-1.24,8.92,8.92,0,0,1,2.75-.44,6.19,6.19,0,0,1,4.15,1.29,4.3,4.3,0,0,1,1.51,3.43,6,6,0,0,1-.56,2.5,6.84,6.84,0,0,1-3.76,3.48,7.33,7.33,0,0,1-2.62.46h-.12Z" transform="translate(-849.6 -434.25)"/><path class="cls-2" d="M916.87,527.05h-3.45l2.54-12h3.46l-.31,1.48a9.34,9.34,0,0,1,1.66-1.18,2.79,2.79,0,0,1,1.24-.3,1.52,1.52,0,0,1,1.2.51,1.9,1.9,0,0,1,.46,1.29,1.72,1.72,0,0,1-.48,1.24,1.64,1.64,0,0,1-1.25.51,1,1,0,0,1-.64-.19,1.31,1.31,0,0,1-.32-.8,1.25,1.25,0,0,0-.17-.49.33.33,0,0,0-.26-.11,1.81,1.81,0,0,0-.77.17,4.35,4.35,0,0,0-1,.75Z" transform="translate(-849.6 -434.25)"/><path class="cls-2" d="M923.4,524.31a6.54,6.54,0,0,1,.05-.71c0-.26.08-.54.14-.85l1.64-7.7h3.45L927,523.21c0,.14-.05.27-.07.39s0,.25,0,.38a.86.86,0,0,0,.23.68,1.14,1.14,0,0,0,.75.2,1.77,1.77,0,0,0,1.27-.59,3.47,3.47,0,0,0,.89-1.52h1a7.62,7.62,0,0,1-2.06,3.31,4.43,4.43,0,0,1-3,1.13,2.4,2.4,0,0,1-1.88-.75A3.07,3.07,0,0,1,923.4,524.31Zm6.12-12.46a1.84,1.84,0,0,1-.56,1.35,1.87,1.87,0,0,1-1.36.55,1.8,1.8,0,0,1-1.34-.55,1.83,1.83,0,0,1-.55-1.35,1.87,1.87,0,0,1,.55-1.35,1.77,1.77,0,0,1,1.34-.56,1.84,1.84,0,0,1,1.36.56A1.87,1.87,0,0,1,929.52,511.85Z" transform="translate(-849.6 -434.25)"/><path class="cls-2" d="M938.19,517a2.11,2.11,0,0,1-.35,1.28,1.1,1.1,0,0,1-.93.47,1.21,1.21,0,0,1-.4-.07,1.81,1.81,0,0,1-.44-.22,4.41,4.41,0,0,0,.22-.74,3.32,3.32,0,0,0,.07-.67,1.29,1.29,0,0,0-.17-.74.58.58,0,0,0-.5-.25c-.7,0-1.39.82-2.06,2.44a11.92,11.92,0,0,0-1,4.62,2.48,2.48,0,0,0,.37,1.56,1.7,1.7,0,0,0,1.36.45,4.29,4.29,0,0,0,2.07-.51,8.71,8.71,0,0,0,2.17-1.91h.82a10.87,10.87,0,0,1-3,3.35,6.29,6.29,0,0,1-3.58,1.09,3.79,3.79,0,0,1-2.8-1,3.9,3.9,0,0,1-.94-2.85,11.06,11.06,0,0,1,.42-2.91,10.42,10.42,0,0,1,1.16-2.74,6.3,6.3,0,0,1,2.12-2.17,5.38,5.38,0,0,1,2.75-.73,3,3,0,0,1,2,.57A2,2,0,0,1,938.19,517Z" transform="translate(-849.6 -434.25)"/><path class="cls-2" d="M947.4,517.13a4.52,4.52,0,0,1-1.63,3.47,6.08,6.08,0,0,1-3.89,1.6c0,.27,0,.48,0,.61s0,.25,0,.35a2.47,2.47,0,0,0,.38,1.56,1.67,1.67,0,0,0,1.35.45,4.36,4.36,0,0,0,2.08-.51,8.88,8.88,0,0,0,2.17-1.91h.82a10.76,10.76,0,0,1-3,3.35,6.28,6.28,0,0,1-3.57,1.09,3.76,3.76,0,0,1-2.8-1,3.91,3.91,0,0,1-1-2.85,11.09,11.09,0,0,1,.43-2.91,11.53,11.53,0,0,1,1.16-2.74,6.3,6.3,0,0,1,2.12-2.17,5.4,5.4,0,0,1,2.77-.73,3,3,0,0,1,2,.57A2.14,2.14,0,0,1,947.4,517.13Zm-2.45-1c-.54,0-1.09.49-1.64,1.45a12,12,0,0,0-1.24,3.5,3.55,3.55,0,0,0,2.44-1.29,3.91,3.91,0,0,0,1-2.67,1.47,1.47,0,0,0-.14-.75A.5.5,0,0,0,945,516.1Z" transform="translate(-849.6 -434.25)"/></svg>