<svg id="Layer_1" data-name="Layer 1" xmlns="http://www.w3.org/2000/svg" viewBox="0 0 150 150"><defs><style>.cls-1{fill:#2252bc;}.cls-2{fill:#fff;}</style></defs><rect class="cls-1" width="150" height="150" rx="33.41"/><path class="cls-2" d="M801.21,511.85h-3.46L801,496.58l3.55-.48-1.13,5.33h.14a3.12,3.12,0,0,0,2.4-1.22,4,4,0,0,0,1.06-2.67,2.34,2.34,0,0,0-.83-1.89,3.5,3.5,0,0,0-2.34-.7,6.06,6.06,0,0,0-4.26,1.61,5.48,5.48,0,0,0-1.74,4.22,4.66,4.66,0,0,0,.06.8,2.4,2.4,0,0,0,.21.64l.06.14s0,0,0,.06a2.85,2.85,0,0,1-1.93-.56,2,2,0,0,1-.64-1.65,4.6,4.6,0,0,1,.83-2.55,7.5,7.5,0,0,1,2.29-2.18,9.55,9.55,0,0,1,2.65-1.21,10.55,10.55,0,0,1,2.94-.42,6,6,0,0,1,3.73,1,3.33,3.33,0,0,1,1.38,2.76,4,4,0,0,1-.64,2.16,4.93,4.93,0,0,1-1.76,1.66,3.19,3.19,0,0,1,2.1,1.28,4.3,4.3,0,0,1,.74,2.58,9.3,9.3,0,0,1-.34,2.38,8,8,0,0,1-.94,2.21,5,5,0,0,1-1.72,1.74,4.46,4.46,0,0,1-2.26.59,2.94,2.94,0,0,1-1.75-.46,1.52,1.52,0,0,1-.63-1.32,3.19,3.19,0,0,1,.08-.64,3.23,3.23,0,0,1,.24-.75,4.21,4.21,0,0,0,.82.66,1.68,1.68,0,0,0,.78.2,1.93,1.93,0,0,0,1.73-1.25,6.61,6.61,0,0,0,.65-3.07,3.72,3.72,0,0,0-.58-2.28,2,2,0,0,0-1.7-.77l-.49,0-.61.05Z" transform="translate(-766.79 -447.85)"/><path class="cls-2" d="M819.54,501.94a4.52,4.52,0,0,1-1.63,3.46A6.08,6.08,0,0,1,814,507c0,.27,0,.48,0,.61s0,.25,0,.35a2.48,2.48,0,0,0,.37,1.56,1.69,1.69,0,0,0,1.35.46,4.31,4.31,0,0,0,2.08-.52,8.5,8.5,0,0,0,2.17-1.91h.82a10.65,10.65,0,0,1-3,3.35,6.26,6.26,0,0,1-3.57,1.09,3.77,3.77,0,0,1-2.8-1,3.91,3.91,0,0,1-1-2.85,10.72,10.72,0,0,1,.44-2.91,10.88,10.88,0,0,1,1.15-2.73,6.34,6.34,0,0,1,2.12-2.18,5.43,5.43,0,0,1,2.77-.73,3,3,0,0,1,2,.57A2.15,2.15,0,0,1,819.54,501.94Zm-2.44-1c-.55,0-1.1.49-1.65,1.46a11.53,11.53,0,0,0-1.23,3.49,3.49,3.49,0,0,0,2.43-1.29,3.92,3.92,0,0,0,1.05-2.67,1.45,1.45,0,0,0-.15-.75A.49.49,0,0,0,817.1,500.9Z" transform="translate(-766.79 -447.85)"/><path class="cls-2" d="M827,507.84c0,.19,0,.36,0,.5s0,.28-.07.41q.48-.28.93-.6a8.49,8.49,0,0,0,.79-.6h1a12.42,12.42,0,0,1-1.64,1.6,17.17,17.17,0,0,1-2,1.4,4.11,4.11,0,0,1-1.66,1.07,6,6,0,0,1-2.11.37,3.62,3.62,0,0,1-2.55-.87,2.86,2.86,0,0,1-.95-2.2,2.63,2.63,0,0,1,.36-1.36,2.11,2.11,0,0,1,.91-.87,33.71,33.71,0,0,0,1.52-3.13,41.8,41.8,0,0,0,1.43-4l3.55-.48c0,1.2.11,2.3.17,3.29s.15,2.07.24,3.24c.05.67.08,1.15.1,1.42S827,507.58,827,507.84Zm-3.93-5.66c-.21.65-.46,1.34-.76,2.05s-.69,1.54-1.19,2.48a.92.92,0,0,1,.41.34.84.84,0,0,1,.14.5,1.2,1.2,0,0,1-.31.82,1,1,0,0,1-.74.36.86.86,0,0,1-.41-.09.52.52,0,0,1-.24-.22,1.92,1.92,0,0,0,.35,1.28,1.41,1.41,0,0,0,1.11.4,2.05,2.05,0,0,0,1.54-.58,2.29,2.29,0,0,0,.55-1.66c0-.22,0-.45,0-.68s0-.62-.1-1.16c-.08-.76-.14-1.42-.19-2S823.14,502.83,823.1,502.18Z" transform="translate(-766.79 -447.85)"/><path class="cls-2" d="M829.5,499.85h.8l.72-3.31,3.55-.48-.82,3.79h1.44l-.19,1h-1.44L832,508c0,.14,0,.27-.07.39s0,.25,0,.38a.85.85,0,0,0,.23.68,1.09,1.09,0,0,0,.75.2,1.79,1.79,0,0,0,1.27-.58,3.56,3.56,0,0,0,.89-1.53h1a7.62,7.62,0,0,1-2.06,3.31,4.39,4.39,0,0,1-3,1.13,2.4,2.4,0,0,1-1.88-.75,3.07,3.07,0,0,1-.69-2.13,6.54,6.54,0,0,1,0-.71c0-.26.08-.54.14-.85l1.44-6.74h-.79Z" transform="translate(-766.79 -447.85)"/><path class="cls-2" d="M855,493.85a6.87,6.87,0,0,1,1,.08,4.09,4.09,0,0,1,.89.25l-3.77,17.67h-3.46l1.85-8.71a9.74,9.74,0,0,0-1.58-.59,8.78,8.78,0,0,0-1.63-.28,42.12,42.12,0,0,0-2.25,6.05,19.15,19.15,0,0,0-.87,4.92,2.91,2.91,0,0,0,.08.76,2.16,2.16,0,0,0,.25.58A3.83,3.83,0,0,1,843,514a2.47,2.47,0,0,1-.69-1.92,13.48,13.48,0,0,1,1-4.3,36.5,36.5,0,0,1,2.55-5.47,5.43,5.43,0,0,0-1.9.39,1.56,1.56,0,0,0-.9.86c.06,0,.13.08.2.25a1.28,1.28,0,0,1,.11.49.79.79,0,0,1-.39.68,1.67,1.67,0,0,1-1,.26,1.56,1.56,0,0,1-1.08-.37,1.32,1.32,0,0,1-.4-1,2.45,2.45,0,0,1,1.4-2.1,6.61,6.61,0,0,1,3.49-.85h.55l.7.06a22.94,22.94,0,0,1,4.3-5.21A6.42,6.42,0,0,1,855,493.85Zm-1.87,1.7a7,7,0,0,0-2.09,2,24.3,24.3,0,0,0-2.23,3.71c.58.11,1.11.24,1.6.38s.93.3,1.33.46Z" transform="translate(-766.79 -447.85)"/><path class="cls-2" d="M862.72,493.87a2.87,2.87,0,0,1,2,.75,2.34,2.34,0,0,1,.83,1.84c0,.2,0,.37,0,.53a3.4,3.4,0,0,1-.06.46h-1.13c0-.26,0-.41,0-.47v-.18a.73.73,0,0,0-.25-.6,1,1,0,0,0-.66-.22,1.36,1.36,0,0,0-1,.51,3.14,3.14,0,0,0-.63,1.46l-.41,1.9h1.75l-.17,1h-1.77l-2.76,13a5.74,5.74,0,0,1-1.51,3.06,3.9,3.9,0,0,1-2.79,1,2.87,2.87,0,0,1-2-.75,2.38,2.38,0,0,1-.83-1.84,2.68,2.68,0,0,1,.83-2,8.82,8.82,0,0,1,3.3-1.56l2.9-13.71a5.7,5.7,0,0,1,1.54-3.05A4,4,0,0,1,862.72,493.87Zm-7.44,18.58a5.3,5.3,0,0,0-2,1,1.93,1.93,0,0,0-.62,1.42.72.72,0,0,0,.3.54,1,1,0,0,0,.66.25,1,1,0,0,0,.82-.48,3.56,3.56,0,0,0,.55-1.39Z" transform="translate(-766.79 -447.85)"/><path class="cls-2" d="M863.56,499.85h.79l.72-3.31,3.55-.48-.81,3.79h1.44l-.19,1h-1.44l-1.54,7.2a3.24,3.24,0,0,0-.07.39,2.34,2.34,0,0,0,0,.38.88.88,0,0,0,.23.68,1.12,1.12,0,0,0,.76.2,1.79,1.79,0,0,0,1.27-.58,3.56,3.56,0,0,0,.89-1.53h1a7.63,7.63,0,0,1-2.07,3.31,4.34,4.34,0,0,1-3,1.13,2.44,2.44,0,0,1-1.89-.75,3.11,3.11,0,0,1-.68-2.13,4.72,4.72,0,0,1,.05-.71c0-.26.08-.54.14-.85l1.44-6.74h-.79Z" transform="translate(-766.79 -447.85)"/><path class="cls-2" d="M877.82,501.94a4.53,4.53,0,0,1-1.64,3.46,6.05,6.05,0,0,1-3.88,1.6c0,.27,0,.48,0,.61s0,.25,0,.35a2.48,2.48,0,0,0,.37,1.56A1.7,1.7,0,0,0,874,510a4.3,4.3,0,0,0,2.07-.52,8.5,8.5,0,0,0,2.17-1.91H879a10.75,10.75,0,0,1-3,3.35,6.29,6.29,0,0,1-3.58,1.09,3.79,3.79,0,0,1-2.8-1,3.9,3.9,0,0,1-.94-2.85,10.69,10.69,0,0,1,.43-2.91,11.27,11.27,0,0,1,1.15-2.73,6.34,6.34,0,0,1,2.12-2.18,5.44,5.44,0,0,1,2.78-.73,3,3,0,0,1,2,.57A2.15,2.15,0,0,1,877.82,501.94Zm-2.45-1c-.55,0-1.09.49-1.65,1.46a11.53,11.53,0,0,0-1.23,3.49,3.47,3.47,0,0,0,2.43-1.29,3.92,3.92,0,0,0,1.05-2.67,1.45,1.45,0,0,0-.15-.75A.47.47,0,0,0,875.37,500.9Z" transform="translate(-766.79 -447.85)"/><path class="cls-2" d="M880.79,511.85h-3.45l2.54-12h3.46l-.32,1.49a9,9,0,0,1,1.67-1.19,2.79,2.79,0,0,1,1.24-.3,1.55,1.55,0,0,1,1.2.51,1.91,1.91,0,0,1,.45,1.29,1.76,1.76,0,0,1-.48,1.25,1.65,1.65,0,0,1-1.24.5.94.94,0,0,1-.64-.19,1.3,1.3,0,0,1-.32-.79,1.32,1.32,0,0,0-.17-.5.35.35,0,0,0-.27-.1,1.79,1.79,0,0,0-.76.16,4.68,4.68,0,0,0-1,.75Z" transform="translate(-766.79 -447.85)"/><path class="cls-2" d="M784.25,526.94a3.72,3.72,0,0,1,1.6-3.07,6.32,6.32,0,0,1,3.95-1.22,4.79,4.79,0,0,1,2.84.74,2.49,2.49,0,0,1,1,2.14,2.71,2.71,0,0,1-.54,1.75,1.74,1.74,0,0,1-1.43.67,1.51,1.51,0,0,1-.61-.12,1.36,1.36,0,0,1-.49-.38,2.08,2.08,0,0,0,.78-.87,2.54,2.54,0,0,0,.3-1.2,1.5,1.5,0,0,0-.46-1.18,1.87,1.87,0,0,0-1.32-.42,2.26,2.26,0,0,0-1.62.57,2.16,2.16,0,0,0-.58,1.61,3.18,3.18,0,0,0,.43,1.6,9.12,9.12,0,0,0,1.87,2,10.45,10.45,0,0,1,2.49,2.87,6,6,0,0,1,.6,2.7,5.48,5.48,0,0,1-1.89,4.37,7.17,7.17,0,0,1-4.85,1.63,5.84,5.84,0,0,1-3.72-1.08,3.66,3.66,0,0,1-1.37-3.05,4,4,0,0,1,1-2.83,3.28,3.28,0,0,1,2.49-1.1,2.48,2.48,0,0,1,1.49.42,1.49,1.49,0,0,1,.62,1.16,3.24,3.24,0,0,0-2,.6,2,2,0,0,0-.78,1.66,2.26,2.26,0,0,0,.63,1.65,2.18,2.18,0,0,0,1.68.65,2.57,2.57,0,0,0,2-.86,3.34,3.34,0,0,0,.77-2.33,5,5,0,0,0-.5-2.16,13.14,13.14,0,0,0-2.09-2.76,11.72,11.72,0,0,1-1.88-2.41A3.84,3.84,0,0,1,784.25,526.94Z" transform="translate(-766.79 -447.85)"/><path class="cls-2" d="M802.08,529.75v.17l.27-1.27h3.45l-1.72,8.16a3.39,3.39,0,0,0-.08.39c0,.12,0,.25,0,.38a1.1,1.1,0,0,0,.24.78,1,1,0,0,0,.74.25,1.47,1.47,0,0,0,1.13-.59,4.41,4.41,0,0,0,.82-1.67h1a8.07,8.07,0,0,1-2,3.33,4.08,4.08,0,0,1-2.83,1.11,2.31,2.31,0,0,1-1.64-.57,2.45,2.45,0,0,1-.71-1.64,5.52,5.52,0,0,1-1.64,1.66,3.63,3.63,0,0,1-1.94.55,2.88,2.88,0,0,1-2.34-1,4.33,4.33,0,0,1-.85-2.85,11.19,11.19,0,0,1,1.54-5.47,6.88,6.88,0,0,1,2.06-2.18,4.7,4.7,0,0,1,2.57-.75,2.74,2.74,0,0,1,1.44.32A1,1,0,0,1,802.08,529.75Zm-.21,1.18a.9.9,0,0,0-.27-.64.94.94,0,0,0-.72-.27c-.88,0-1.66.73-2.34,2.2a10.39,10.39,0,0,0-1,4.37,2.91,2.91,0,0,0,.27,1.41,1,1,0,0,0,.93.46,1.73,1.73,0,0,0,1.22-.6,3,3,0,0,0,.78-1.51Z" transform="translate(-766.79 -447.85)"/><path class="cls-2" d="M806.72,537.91a6.32,6.32,0,0,1,0-.71c0-.26.08-.54.15-.85l2.57-12,3.55-.48-2.76,13a3.24,3.24,0,0,0-.07.39,2.34,2.34,0,0,0,0,.38.88.88,0,0,0,.23.68,1.1,1.1,0,0,0,.76.2,1.81,1.81,0,0,0,1.27-.58,3.67,3.67,0,0,0,.89-1.53h1a7.62,7.62,0,0,1-2.06,3.31,4.37,4.37,0,0,1-3,1.13,2.42,2.42,0,0,1-1.88-.75A3.06,3.06,0,0,1,806.72,537.91Z" transform="translate(-766.79 -447.85)"/><path class="cls-2" d="M821.74,530.74a4.52,4.52,0,0,1-1.63,3.46,6.1,6.1,0,0,1-3.89,1.6c0,.27,0,.48,0,.61s0,.25,0,.35a2.55,2.55,0,0,0,.37,1.56,1.7,1.7,0,0,0,1.36.46,4.36,4.36,0,0,0,2.08-.52,8.67,8.67,0,0,0,2.17-1.91H823a10.52,10.52,0,0,1-3,3.35,6.29,6.29,0,0,1-3.58,1.09,3.75,3.75,0,0,1-2.79-1,3.91,3.91,0,0,1-1-2.85,10.69,10.69,0,0,1,.43-2.91,11.27,11.27,0,0,1,1.15-2.73,6.36,6.36,0,0,1,2.13-2.18,5.4,5.4,0,0,1,2.77-.73,3,3,0,0,1,2,.57A2.15,2.15,0,0,1,821.74,530.74Zm-2.45-1c-.54,0-1.09.49-1.64,1.46a11.53,11.53,0,0,0-1.24,3.49,3.51,3.51,0,0,0,2.44-1.29,4,4,0,0,0,1-2.67,1.58,1.58,0,0,0-.14-.75A.5.5,0,0,0,819.29,529.7Z" transform="translate(-766.79 -447.85)"/><path class="cls-2" d="M829.23,536.64a3.63,3.63,0,0,1,0,.5,2.5,2.5,0,0,1-.07.41c.32-.19.63-.39.94-.6s.57-.41.79-.6h1a13.14,13.14,0,0,1-1.65,1.6,17,17,0,0,1-2,1.4,4.26,4.26,0,0,1-1.66,1.07,6,6,0,0,1-2.11.37,3.64,3.64,0,0,1-2.56-.87,2.89,2.89,0,0,1-1-2.2,2.63,2.63,0,0,1,.36-1.36,2.13,2.13,0,0,1,.92-.87,33.71,33.71,0,0,0,1.52-3.13c.47-1.12.95-2.44,1.43-4l3.55-.48c0,1.2.1,2.3.17,3.29s.14,2.07.24,3.24c0,.67.08,1.15.09,1.42S829.23,536.38,829.23,536.64ZM825.29,531c-.21.65-.46,1.34-.75,2s-.7,1.54-1.19,2.48a1,1,0,0,1,.41.34.92.92,0,0,1,.14.5,1.2,1.2,0,0,1-.31.82,1,1,0,0,1-.75.36.82.82,0,0,1-.4-.09.44.44,0,0,1-.24-.22,1.92,1.92,0,0,0,.34,1.28,1.45,1.45,0,0,0,1.12.4,2.05,2.05,0,0,0,1.54-.58,2.34,2.34,0,0,0,.55-1.66c0-.22,0-.45,0-.68s0-.62-.09-1.16c-.08-.76-.15-1.42-.19-2S825.34,531.63,825.29,531Z" transform="translate(-766.79 -447.85)"/><path class="cls-2" d="M839.72,526.94a3.74,3.74,0,0,1,1.59-3.07,6.34,6.34,0,0,1,4-1.22,4.77,4.77,0,0,1,2.84.74,2.49,2.49,0,0,1,1,2.14,2.71,2.71,0,0,1-.54,1.75,1.72,1.72,0,0,1-1.42.67,1.56,1.56,0,0,1-.62-.12,1.45,1.45,0,0,1-.49-.38,2.08,2.08,0,0,0,.78-.87,2.54,2.54,0,0,0,.3-1.2,1.53,1.53,0,0,0-.45-1.18,1.9,1.9,0,0,0-1.32-.42,2.22,2.22,0,0,0-1.62.57,2.13,2.13,0,0,0-.59,1.61,3.18,3.18,0,0,0,.43,1.6,9.38,9.38,0,0,0,1.87,2,10.35,10.35,0,0,1,2.5,2.87,6,6,0,0,1,.6,2.7,5.46,5.46,0,0,1-1.9,4.37,7.15,7.15,0,0,1-4.85,1.63,5.88,5.88,0,0,1-3.72-1.08,3.65,3.65,0,0,1-1.36-3.05,4,4,0,0,1,1-2.83,3.31,3.31,0,0,1,2.49-1.1,2.46,2.46,0,0,1,1.49.42,1.5,1.5,0,0,1,.63,1.16,3.22,3.22,0,0,0-2,.6,2,2,0,0,0-.78,1.66,2.3,2.3,0,0,0,.62,1.65,2.21,2.21,0,0,0,1.68.65,2.59,2.59,0,0,0,2-.86,3.39,3.39,0,0,0,.77-2.33,4.83,4.83,0,0,0-.51-2.16,12.79,12.79,0,0,0-2.09-2.76,12.09,12.09,0,0,1-1.88-2.41A3.83,3.83,0,0,1,839.72,526.94Z" transform="translate(-766.79 -447.85)"/><path class="cls-2" d="M858.56,530.74a4.53,4.53,0,0,1-1.64,3.46,6.05,6.05,0,0,1-3.88,1.6c0,.27,0,.48,0,.61s0,.25,0,.35a2.48,2.48,0,0,0,.37,1.56,1.7,1.7,0,0,0,1.36.46,4.3,4.3,0,0,0,2.07-.52,8.5,8.5,0,0,0,2.17-1.91h.82a10.75,10.75,0,0,1-3,3.35,6.29,6.29,0,0,1-3.58,1.09,3.79,3.79,0,0,1-2.8-1,3.9,3.9,0,0,1-.94-2.85,10.69,10.69,0,0,1,.43-2.91,11.27,11.27,0,0,1,1.15-2.73,6.34,6.34,0,0,1,2.12-2.18,5.44,5.44,0,0,1,2.78-.73,3,3,0,0,1,2,.57A2.15,2.15,0,0,1,858.56,530.74Zm-2.45-1c-.55,0-1.09.49-1.65,1.46a11.53,11.53,0,0,0-1.23,3.49,3.47,3.47,0,0,0,2.43-1.29,3.92,3.92,0,0,0,1.05-2.67,1.45,1.45,0,0,0-.15-.75A.47.47,0,0,0,856.11,529.7Z" transform="translate(-766.79 -447.85)"/><path class="cls-2" d="M861.53,540.65h-3.45l2.54-12h3.46l-.32,1.49a9,9,0,0,1,1.67-1.19,2.79,2.79,0,0,1,1.24-.3,1.55,1.55,0,0,1,1.2.51,1.91,1.91,0,0,1,.45,1.29,1.76,1.76,0,0,1-.48,1.25,1.65,1.65,0,0,1-1.24.5A.94.94,0,0,1,866,532a1.3,1.3,0,0,1-.32-.79,1.32,1.32,0,0,0-.17-.5.36.36,0,0,0-.27-.1,1.79,1.79,0,0,0-.76.16,4.68,4.68,0,0,0-1,.75Z" transform="translate(-766.79 -447.85)"/><path class="cls-2" d="M875.45,530.69a.73.73,0,0,1-.62-.37,1.57,1.57,0,0,1-.24-.86,1.19,1.19,0,0,1,.39-.94,1.58,1.58,0,0,1,1.1-.35,1.27,1.27,0,0,1,1.12.55,2.64,2.64,0,0,1,.39,1.54,15.06,15.06,0,0,1-.42,3.42,15.35,15.35,0,0,1-1.14,3.25,7.94,7.94,0,0,1-2.31,2.88,4.94,4.94,0,0,1-3,1,3.05,3.05,0,0,1-2.19-.73,2.77,2.77,0,0,1-.76-2.1,5.55,5.55,0,0,1,0-.56c0-.2,0-.4.09-.59l1.72-8.16h3.46l-1.73,8.16c0,.17-.06.34-.08.49a2,2,0,0,0,0,.37.72.72,0,0,0,.82.79,2.28,2.28,0,0,0,1.64-.87,8.09,8.09,0,0,0,1.45-2.49,14.25,14.25,0,0,0,.77-2.42,10.42,10.42,0,0,0,.29-2.23c0,.06-.13.12-.3.17A2.06,2.06,0,0,1,875.45,530.69Z" transform="translate(-766.79 -447.85)"/><path class="cls-2" d="M877.75,537.91a6.54,6.54,0,0,1,0-.71,8.07,8.07,0,0,1,.15-.85l1.63-7.7H883l-1.72,8.16a3.39,3.39,0,0,0-.08.39c0,.12,0,.25,0,.38a.88.88,0,0,0,.23.68,1.09,1.09,0,0,0,.75.2,1.82,1.82,0,0,0,1.28-.58,3.55,3.55,0,0,0,.88-1.53h1a7.62,7.62,0,0,1-2.06,3.31,4.39,4.39,0,0,1-3,1.13,2.42,2.42,0,0,1-1.88-.75A3.07,3.07,0,0,1,877.75,537.91Zm6.13-12.45a1.81,1.81,0,0,1-.57,1.34,1.87,1.87,0,0,1-1.36.55,1.88,1.88,0,0,1-1.89-1.89,1.87,1.87,0,0,1,.55-1.36,1.8,1.8,0,0,1,1.34-.56,1.93,1.93,0,0,1,1.93,1.92Z" transform="translate(-766.79 -447.85)"/><path class="cls-2" d="M892.54,530.64a2.11,2.11,0,0,1-.35,1.28,1.07,1.07,0,0,1-.92.47,1.22,1.22,0,0,1-.41-.07,1.59,1.59,0,0,1-.43-.22,5.52,5.52,0,0,0,.21-.74,3.25,3.25,0,0,0,.07-.67,1.32,1.32,0,0,0-.16-.73.57.57,0,0,0-.51-.26c-.7,0-1.39.82-2.06,2.44a12.11,12.11,0,0,0-1,4.62,2.48,2.48,0,0,0,.37,1.56,1.7,1.7,0,0,0,1.36.46,4.3,4.3,0,0,0,2.07-.52,8.52,8.52,0,0,0,2.18-1.91h.81a10.63,10.63,0,0,1-3,3.35,6.29,6.29,0,0,1-3.58,1.09,3.75,3.75,0,0,1-2.79-1,3.86,3.86,0,0,1-1-2.85,11.06,11.06,0,0,1,.42-2.91,10.54,10.54,0,0,1,1.16-2.73,6.27,6.27,0,0,1,2.13-2.18,5.36,5.36,0,0,1,2.75-.73,3,3,0,0,1,2,.57A2,2,0,0,1,892.54,530.64Z" transform="translate(-766.79 -447.85)"/><path class="cls-2" d="M901.75,530.74a4.52,4.52,0,0,1-1.63,3.46,6.08,6.08,0,0,1-3.89,1.6c0,.27,0,.48,0,.61s0,.25,0,.35a2.48,2.48,0,0,0,.37,1.56,1.69,1.69,0,0,0,1.35.46,4.31,4.31,0,0,0,2.08-.52,8.5,8.5,0,0,0,2.17-1.91H903a10.65,10.65,0,0,1-3,3.35,6.26,6.26,0,0,1-3.57,1.09,3.77,3.77,0,0,1-2.8-1,3.91,3.91,0,0,1-1-2.85,10.72,10.72,0,0,1,.44-2.91,10.88,10.88,0,0,1,1.15-2.73,6.34,6.34,0,0,1,2.12-2.18,5.43,5.43,0,0,1,2.77-.73,3,3,0,0,1,2,.57A2.15,2.15,0,0,1,901.75,530.74Zm-2.44-1c-.55,0-1.1.49-1.65,1.46a11.53,11.53,0,0,0-1.23,3.49,3.49,3.49,0,0,0,2.43-1.29,3.92,3.92,0,0,0,1-2.67,1.45,1.45,0,0,0-.15-.75A.49.49,0,0,0,899.31,529.7Z" transform="translate(-766.79 -447.85)"/></svg>